<svg width="17.778in" height="10.681in" version="1.1" viewBox="0 0 .24692 .14835" xmlns="http://www.w3.org/2000/svg" xmlns:cc="http://creativecommons.org/ns#" xmlns:dc="http://purl.org/dc/elements/1.1/" xmlns:rdf="http://www.w3.org/1999/02/22-rdf-syntax-ns#">
 <title>bash</title>
 <defs>
  <filter id="s" x="-.025043" y="-.043052" width="1.0501" height="1.0861" color-interpolation-filters="sRGB">
   <feGaussianBlur stdDeviation="11.775211"/>
  </filter>
  <linearGradient id="i" x1="842.66" x2="2043.8" y1="666.8" y2="666.8" gradientUnits="userSpaceOnUse">
   <stop stop-color="#090909" stop-opacity=".97983" offset="0"/>
   <stop stop-color="#232323" offset="1"/>
  </linearGradient>
  <linearGradient id="h" x1="335.13" x2="1536.3" y1="520.8" y2="520.8" gradientUnits="userSpaceOnUse">
   <stop stop-color="#222" stop-opacity=".32853" offset="0"/>
   <stop stop-color="#121212" stop-opacity=".93372" offset="1"/>
  </linearGradient>
  <filter id="r" x="-.057366" y="-.098621" width="1.1147" height="1.1972" color-interpolation-filters="sRGB">
   <feGaussianBlur stdDeviation="26.97375"/>
  </filter>
  <filter id="q" x="-.051079" y="-.087814" width="1.1022" height="1.1756" color-interpolation-filters="sRGB">
   <feGaussianBlur stdDeviation="24.017893"/>
  </filter>
  <filter id="p" x="-.031435" y="-.054042" width="1.0629" height="1.1081" color-interpolation-filters="sRGB">
   <feGaussianBlur stdDeviation="14.780929"/>
  </filter>
  <linearGradient id="g" x1="75.442" x2="1274.9" y1="1157.4" y2="1157.4" gradientUnits="userSpaceOnUse">
   <stop stop-color="#030303" offset="0"/>
   <stop stop-color="#adadad" stop-opacity=".50144" offset="1"/>
  </linearGradient>
  <filter id="o" x="-.04468" y="-.076813" width="1.0894" height="1.1536" color-interpolation-filters="sRGB">
   <feGaussianBlur stdDeviation="21.00911"/>
  </filter>
  <linearGradient id="f" x1="75.339" x2="1275" y1="1157.4" y2="1157.4" gradientUnits="userSpaceOnUse">
   <stop stop-color="#3e3e3e" offset="0"/>
   <stop offset="1"/>
  </linearGradient>
  <filter id="n" x="-.055335" y="-.09513" width="1.1107" height="1.1903" color-interpolation-filters="sRGB">
   <feGaussianBlur stdDeviation="26.019002"/>
  </filter>
  <filter id="m" x="-.033823" y="-.058147" width="1.0676" height="1.1163" color-interpolation-filters="sRGB">
   <feGaussianBlur stdDeviation="15.903847"/>
  </filter>
  <filter id="l" x="-.027159" y="-.046691" width="1.0543" height="1.0934" color-interpolation-filters="sRGB">
   <feGaussianBlur stdDeviation="12.770514"/>
  </filter>
  <linearGradient id="e" x1="80.267" x2="1270.1" y1="1157.4" y2="1157.4" gradientUnits="userSpaceOnUse">
   <stop stop-color="#999" offset="0"/>
   <stop stop-color="#5b5b5b" stop-opacity=".72911" offset="1"/>
  </linearGradient>
  <linearGradient id="d" x1="82.656" x2="1267.7" y1="1157.4" y2="1157.4" gradientUnits="userSpaceOnUse">
   <stop stop-color="#767676" stop-opacity=".36311" offset="0"/>
   <stop stop-color="#fff" offset="1"/>
  </linearGradient>
  <linearGradient id="c" x1="336" x2="1535.4" y1="520.8" y2="520.8" gradientUnits="userSpaceOnUse">
   <stop stop-color="#fff" offset="0"/>
   <stop stop-color="#737373" stop-opacity=".36888" offset="1"/>
  </linearGradient>
  <linearGradient id="b" x1="840.84" x2="2045.7" y1="666.8" y2="666.8" gradientUnits="userSpaceOnUse">
   <stop stop-color="#707070" stop-opacity=".76369" offset="0"/>
   <stop stop-color="#e6e6e6" offset="1"/>
  </linearGradient>
  <filter id="k" x="-.28938" y="-.2233" width="1.5788" height="1.4466" color-interpolation-filters="sRGB">
   <feGaussianBlur stdDeviation="23.097776"/>
  </filter>
  <linearGradient id="a" x1="1562.8" x2="1954.1" y1="1677.9" y2="1874.1" gradientTransform="matrix(.96921 0 0 .97366 48.524 33.922)" gradientUnits="userSpaceOnUse">
   <stop stop-color="#fff" offset="0"/>
   <stop stop-color="#363636" stop-opacity=".85303" offset="1"/>
  </linearGradient>
  <filter id="j" x="-.011983" y="-.0073041" width="1.024" height="1.0146" color-interpolation-filters="sRGB">
   <feGaussianBlur stdDeviation="5.639009"/>
  </filter>
 </defs>
 <metadata>
  <rdf:RDF>
   <cc:Work rdf:about="">
    <dc:date>16-Jun-2023</dc:date>
    <dc:creator>
     <cc:Agent>
      <dc:title>Yousuf Ahmed Antu</dc:title>
     </cc:Agent>
    </dc:creator>
    <dc:publisher>
     <cc:Agent>
      <dc:title>https://github.com/YousufAntu/covers/</dc:title>
     </cc:Agent>
    </dc:publisher>
    <dc:language>English</dc:language>
    <dc:contributor>
     <cc:Agent>
      <dc:title>Yousuf Ahmed Antu</dc:title>
     </cc:Agent>
    </dc:contributor>
    <cc:license rdf:resource="https://www.apache.org/licenses/LICENSE-2.0"/>
    <dc:title>bash</dc:title>
   </cc:Work>
  </rdf:RDF>
 </metadata>
 <rect x="5.0323e-10" y="3.6879e-10" width=".20553" height=".14835" fill="#fff" stroke-opacity="0"/>
 <path d="m0.20553 0h0.04139v0.14835l-0.12843 1e-8 0.047786-0.03373v-0.11462z" fill="#252525" stroke-opacity="0"/>
 <path transform="matrix(4.5521e-5 0 0 4.5521e-5 .011013 .0051646)" d="m1517.5 172.13a229.14 229.14 0 0 0-114.57 30.698l-965.11 557.21a229.13 229.13 0 0 0-114.56 198.44l0.0284 1114.1a229.14 229.14 0 0 0 114.57 198.44l965.1 557.2a229.14 229.14 0 0 0 229.14 0l965.06-557.18a229.14 229.14 0 0 0 114.57-198.44v-1114.2a229.14 229.14 0 0 0-114.57-198.44l-965.09-557.19a229.14 229.14 0 0 0-114.57-30.698zm-5e-4 110.01a229.14 229.14 0 0 1 114.57 30.698l869.81 502.19a229.14 229.14 0 0 1 114.57 198.44v1004.2a229.14 229.14 0 0 1-114.57 198.44l-869.79 502.17a229.14 229.14 0 0 1-229.14 0l-869.82-502.19a229.14 229.14 0 0 1-114.57-198.44l-0.0258-1004.1a229.13 229.13 0 0 1 114.56-198.44l869.83-502.2a229.14 229.14 0 0 1 114.57-30.698z" fill="#313131"/>
 <path transform="matrix(4.5521e-5 0 0 4.5521e-5 .011013 .0051647)" d="m2627.4 953.64a76.379 76.379 0 0 0-30.206 9.8202l-903.44 521.6a229.14 229.14 0 0 0-114.57 198.44v1043a76.379 76.379 0 0 0 114.57 66.147l903.44-521.61a229.14 229.14 0 0 0 114.57-198.44v-1043a76.379 76.379 0 0 0-84.365-75.967zm-634.36 684.91v88.506l136.07-78.562v115.24l-215.63 124.5c-7.9314 4.5792-15.12 10.713-21.565 18.399-5.9485 6.9044-10.658 14.333-14.128 22.285-3.4701 7.9521-5.2019 15.644-5.2019 23.079 0 7.4359 1.7318 13.375 5.2019 17.815 3.4699 3.9453 8.1796 6.1853 14.128 6.7165 6.4444-0.2506 13.633-2.6649 21.565-7.2441l78.077-45.078c34.211-19.752 63.955-30.48 89.232-32.186 25.776-1.9929 45.609 4.6544 59.492 19.938 13.88 14.789 20.82 37.791 20.82 69.014 0 35.69-7.4322 70.716-22.297 105.07-14.376 33.578-33.962 64.218-58.747 91.914-24.296 26.916-51.308 48.951-81.038 66.116l-5.9778 3.4514v88.493l-87.742 50.659v-88.487l-150.2 86.724v-115.24l221.58-127.94c9.4185-5.4378 17.351-11.999 23.793-19.684 6.9401-7.9725 12.391-16.575 16.357-25.804 3.9658-9.2295 5.9467-17.805 5.9467-25.73 0-8.4271-1.9809-14.963-5.9467-19.609-3.9657-4.6506-9.4166-6.9564-16.357-6.9151-6.4442-0.2451-14.377 2.3537-23.793 7.7903l-73.614 42.496c-31.229 18.03-59.487 28.151-84.769 30.354-25.281 2.2028-45.601-3.6593-60.97-17.586-14.871-14.715-22.31-38.432-22.31-71.15 0-32.219 7.189-64.378 21.565-96.476 14.376-32.596 33.712-62.351 58.002-89.263 24.29-27.408 51.303-49.695 81.044-66.867l9.665-5.5805v-88.506zm562.88 292.93v78.822l-371.78 214.65v-78.822z" fill="#313131"/>
 <path transform="matrix(4.5521e-5 0 0 4.5521e-5 .011811 .0058719)" d="m1429.1 192.59-1038.6 599.64s-29.798 43.445-14.74 54.999c10.428 8.0017 22.766-13.145 34.149-19.718 363.36-209.8 1090.1-629.36 1090.1-629.36s-23.634-1.8531-35.451-2.7796c-11.817-0.92654-35.451-2.7796-35.451-2.7796z" fill="url(#c)" filter="url(#p)" opacity=".80702" stroke-opacity="0"/>
 <path transform="matrix(4.5521e-5 0 0 4.5521e-5 .011811 .0058719)" d="m1429.1 192.59-1038.6 599.64s-29.798 43.445-14.74 54.999c10.428 8.0017 22.766-13.145 34.149-19.718 363.36-209.8 1090.1-629.36 1090.1-629.36s-23.634-1.8531-35.451-2.7796c-11.817-0.92654-35.451-2.7796-35.451-2.7796z" fill="url(#h)" filter="url(#q)" stroke-opacity="0" style="mix-blend-mode:normal"/>
 <path transform="matrix(2.2761e-5 3.9422e-5 -3.9422e-5 2.2761e-5 .099141 -.042078)" d="m1936.6 338.59-1038.6 599.64s-29.798 43.445-14.74 54.999c10.428 8.0018 22.766-13.145 34.149-19.718 363.36-209.8 1090.1-629.36 1090.1-629.36s-23.634-1.8531-35.451-2.7796c-11.817-0.92654-35.451-2.7796-35.451-2.7796z" fill="url(#b)" filter="url(#m)" stroke-opacity="0"/>
 <path transform="matrix(2.2761e-5 3.9422e-5 -3.9422e-5 2.2761e-5 .099141 -.042078)" d="m1936.6 338.59-1038.6 599.64s-29.798 43.445-14.74 54.999c10.428 8.0018 22.766-13.145 34.149-19.718 363.36-209.8 1090.1-629.36 1090.1-629.36s-23.634-1.8531-35.451-2.7796c-11.817-0.92654-35.451-2.7796-35.451-2.7796z" fill="url(#i)" filter="url(#r)" stroke-opacity="0"/>
 <path transform="matrix(-2.2761e-5 -3.9422e-5 3.9422e-5 -2.2761e-5 .024238 .17145)" d="m1168.5 829.23-1038.6 599.64s-29.798 43.445-14.74 54.999c10.428 8.0018 22.766-13.145 34.149-19.718 363.36-209.8 1090.1-629.36 1090.1-629.36s-23.634-1.8531-35.451-2.7796c-11.817-0.92654-35.451-2.7796-35.451-2.7796z" fill="url(#e)" filter="url(#l)" opacity=".98026" stroke-opacity="0" style="mix-blend-mode:normal"/>
 <path transform="matrix(-2.2761e-5 -3.9422e-5 3.9422e-5 -2.2761e-5 .024238 .17145)" d="m1168.5 829.23-1038.6 599.64s-29.798 43.445-14.74 54.999c10.428 8.0018 22.766-13.145 34.149-19.718 363.36-209.8 1090.1-629.36 1090.1-629.36s-23.634-1.8531-35.451-2.7796c-11.817-0.92654-35.451-2.7796-35.451-2.7796z" fill="url(#f)" filter="url(#n)" opacity=".875" stroke-opacity="0"/>
 <path transform="matrix(2.2761e-5 -3.9422e-5 3.9422e-5 2.2761e-5 -.032205 .074299)" d="m1168.5 829.23-1038.6 599.64s-29.798 43.445-14.74 54.999c10.428 8.0018 22.766-13.145 34.149-19.718 363.36-209.8 1090.1-629.36 1090.1-629.36s-23.634-1.8531-35.451-2.7796c-11.817-0.92654-35.451-2.7796-35.451-2.7796z" fill="url(#d)" filter="url(#s)" stroke-opacity="0"/>
 <path transform="matrix(2.2761e-5 -3.9422e-5 3.9422e-5 2.2761e-5 -.032205 .074299)" d="m1168.5 829.23-1038.6 599.64s-29.798 43.445-14.74 54.999c10.428 8.0018 22.766-13.145 34.149-19.718 363.36-209.8 1090.1-629.36 1090.1-629.36s-23.634-1.8531-35.451-2.7796c-11.817-0.92654-35.451-2.7796-35.451-2.7796z" fill="url(#g)" filter="url(#o)" opacity=".82018" stroke-opacity="0"/>
 <path transform="matrix(2.6529e-5 0 0 2.6529e-5 .018968 .022198)" d="m454.95 741.61 27.04 0.21416a23.279 23.279 34.208 0 1 21.394 14.544c6.5263 16.123-2.0389 39.87-18.284 54.04-20.841 18.177-46.838 43.04-58.432 62.989-12.876 22.155-22.229 62.716-27.52 90.637-3.1232 16.485-18.751 29.241-34.969 25.002-7.354-1.9223-21.904-10.427-30.999-19.609-15.12-15.265-22.594-49.016-17.642-72.591 3.9447-18.78 9.389-40.328 16.231-57.222 3.2223-7.9573 10.21-20.075 15.482-26.852 13.567-17.441 34.126-36.628 50.334-50.717 13.51-11.744 39.463-20.575 57.366-20.433z" fill="#fff" filter="url(#k)" stroke-opacity="0" style="mix-blend-mode:normal"/>
 <path transform="matrix(4.5332e-5 0 0 4.5051e-5 .012213 .0067481)" d="m2608.5 936.47a76.165 76.515 0 0 0-30.122 9.8286l-900.91 522.53a228.5 229.55 0 0 0-114.25 198.79v1044.8a76.165 76.515 0 0 0 114.25 66.263l900.91-522.52a228.5 229.55 0 0 0 114.25-198.79v-1044.8a76.165 76.515 0 0 0-84.128-76.098zm-13.486 25.986a74.028 74.368 0 0 1 81.766 73.96v1015.5a222.09 223.11 0 0 1-111.04 193.21l-875.63 507.87a74.028 74.368 0 0 1-111.04-64.404v-1015.5a222.09 223.11 0 0 1 111.04-193.22l875.63-507.86a74.028 74.368 0 0 1 29.274-9.5561z" fill="url(#a)" filter="url(#j)" stroke-width=".97144"/>
 <path d="m0.17306 0.063856v0.012861c0 0.0015741 3.2419e-4 0.0029445 9.7235e-4 0.0041112 6.4799e-4 0.0011482 0.001555 0.0020462 0.002722 0.0026943 0.001185 6.4816e-4 0.002556 9.7234e-4 0.004111 9.7234e-4h1.13e-6c0.001204 0 0.002287-1.8517e-4 0.00325-5.5554e-4 9.6267e-4 -3.8886e-4 0.001777-9.2604e-4 0.002444-0.0016112 6.8548e-4 -7.0374e-4 0.001204-0.0015186 0.001556-0.0024446 3.7037e-4 -9.4447e-4 5.5554e-4 -0.0019907 5.5554e-4 -0.0031388 0-0.0014445-2.9638e-4 -0.0027037-8.8898e-4 -0.0037777-5.74e-4 -0.0010926-0.00138-0.0019445-0.002417-0.0025556-0.001037-6.1111e-4 -0.002213-9.1667e-4 -0.003528-9.1667e-4 -5.1851e-4 0-0.001019 6.478e-5 -0.0015 1.9441e-4 -4.8178e-4 1.1111e-4 -9.1689e-4 2.9628e-4 -0.001306 5.5554e-4 -3.8904e-4 2.4074e-4 -7.3171e-4 5.4631e-4 -0.001028 9.1668e-4h-1.1134e-4v-0.0073054zm0.050444 0v0.020278h0.004808v-0.0079723c0-4.8149e-4 1.1093e-4 -9.0743e-4 3.3316e-4 -0.0012778 2.4074e-4 -3.7038e-4 5.463e-4 -6.4813e-4 9.1667e-4 -8.3332e-4 3.7007e-4 -2.037e-4 7.6823e-4 -3.0575e-4 0.001194-3.0575e-4 4.2563e-4 0 8.2351e-4 1.0205e-4 0.001194 3.0575e-4 3.7037e-4 2.0371e-4 6.6675e-4 4.9064e-4 8.8898e-4 8.6101e-4 2.2222e-4 3.7039e-4 3.3344e-4 8.0577e-4 3.3344e-4 0.0013058v0.0079166h0.004833v-0.0082224c0-0.0012777-2.4078e-4 -0.0023979-7.2227e-4 -0.003361-4.82e-4 -9.6296e-4 -0.001167-0.0017131-0.002056-0.0022501-8.7e-4 -5.3704e-4 -0.001935-8.0562e-4 -0.003194-8.0562e-4 -6.2984e-4 0-0.001269 1.0204e-4 -0.001917 3.0575e-4 -6.4844e-4 1.8518e-4 -0.00125 4.8129e-4 -0.001806 8.887e-4v-0.0068332zm-0.025122 0.0056388c-0.001595 5.17e-6 -0.00298 3.3858e-4 -0.004156 1e-3 -0.001185 6.4814e-4 -0.002111 0.0015557-0.002778 0.0027223-6.4816e-4 0.0011667-9.7235e-4 0.0024907-9.7235e-4 0.0039722 0 0.0014074 2.6859e-4 0.0026666 8.0563e-4 0.0037777 5.56e-4 0.0010926 0.001315 0.001954 0.002278 0.0025836 9.6333e-4 6.2963e-4 0.002065 9.4436e-4 0.003306 9.4436e-4 7.7778e-4 0 0.001445-1.1121e-4 2e-3 -3.3343e-4 5.7392e-4 -2.2222e-4 0.001065-5.2779e-4 0.001472-9.1668e-4 4.0739e-4 -3.8887e-4 7.4076e-4 -8.3319e-4 1e-3 -0.0013332h1.1105e-4v0.0022222h0.004639v-0.0071113c0-0.0014629-3.1473e-4 -0.0027591-9.4436e-4 -0.0038888-6.3e-4 -0.0011296-0.001519-0.0020185-0.002667-0.0026667-0.00113-6.4815e-4 -0.002482-9.7234e-4 -0.004056-9.7234e-4zm0.014564 3.3344e-4c-8.3965e-4 4.72e-6 -0.001608 2.0858e-4 -0.002303 6.1121e-4 -7.0341e-4 4.074e-4 -0.001268 9.5374e-4 -0.001694 0.0016389-4.0742e-4 6.852e-4 -6.1093e-4 0.0014445-6.1093e-4 0.0022778 0 0.0010741 2.2214e-4 0.0019535 6.666e-4 0.0026387 4.6266e-4 6.6665e-4 0.001074 0.0011574 0.001833 0.0014722 7.5933e-4 2.9629e-4 0.001602 4.4449e-4 0.002528 4.4449e-4h0.002333c1.8518e-4 0 3.3337e-4 3.698e-5 4.4449e-4 1.1105e-4 1.2963e-4 7.408e-5 2.2221e-4 1.7612e-4 2.7777e-4 3.0575e-4 7.407e-5 1.1111e-4 1.1105e-4 2.4067e-4 1.1105e-4 3.8882e-4s-3.698e-5 2.8689e-4 -1.1105e-4 4.1652e-4c-5.556e-5 1.1111e-4 -1.4814e-4 2.0369e-4 -2.7777e-4 2.7777e-4 -1.1112e-4 7.408e-5 -2.5931e-4 1.1133e-4 -4.4449e-4 1.1133e-4h-0.006778v0.003611h0.007638c8.8866e-4 0 0.001685-2.0351e-4 0.002389-6.1092e-4 7.2207e-4 -4.2594e-4 0.001296-9.8172e-4 0.001722-0.0016669 4.2592e-4 -7.0373e-4 6.389e-4 -0.0014722 6.389e-4 -0.0023055 0-0.0010926-2.1298e-4 -0.0019723-6.389e-4 -0.002639-4.0733e-4 -6.6665e-4 -1e-3 -0.0011574-0.001778-0.0014722-7.78e-4 -3.3333e-4 -0.001694-4.9988e-4 -0.00275-4.9988e-4h-0.002222c-2.2222e-4 0-4.0739e-4 -7.395e-5 -5.5555e-4 -2.221e-4 -1.4814e-4 -1.4815e-4 -2.221e-4 -3.2415e-4 -2.221e-4 -5.2785e-4 0-2.2222e-4 7.396e-5 -4.0739e-4 2.221e-4 -5.5555e-4 1.6667e-4 -1.4814e-4 3.5184e-4 -2.2238e-4 5.5555e-4 -2.2238e-4h0.006139v-0.0035833h-0.007083zm-0.032114 0.0039445h3.249e-5c5.9274e-4 0 0.001102 1.4819e-4 0.001528 4.4449e-4 4.4444e-4 2.7778e-4 7.7781e-4 6.5729e-4 1e-3 0.0011388 2.4075e-4 4.8149e-4 3.6113e-4 0.0010278 3.6113e-4 0.0016389 0 6.2966e-4 -1.2038e-4 0.0011946-3.6113e-4 0.0016946-2.2222e-4 4.9997e-4 -5.5559e-4 8.9787e-4 -1e-3 0.0011942-4.2607e-4 2.7778e-4 -9.3529e-4 4.1679e-4 -0.001528 4.1679e-4 -5.5554e-4 0-0.001056-1.3901e-4 -0.0015-4.1679e-4 -4.4459e-4 -2.9627e-4 -7.8727e-4 -6.9417e-4 -0.001028-0.0011942-2.4075e-4 -5.0003e-4 -3.6085e-4 -0.001065-3.6085e-4 -0.0016946 0-6.1112e-4 1.201e-4 -0.0011574 3.6085e-4 -0.0016389 2.4089e-4 -4.8149e-4 5.8356e-4 -8.61e-4 0.001028-0.0011388 4.3576e-4 -2.9051e-4 9.2512e-4 -4.3882e-4 0.001468-4.4449e-4zm0.017443 0h3.334e-5c5.9274e-4 0 0.001102 1.4819e-4 0.001528 4.4449e-4 4.2593e-4 2.7778e-4 7.5929e-4 6.5729e-4 1e-3 0.0011388 2.4075e-4 4.6297e-4 3.6114e-4 0.0010093 3.6114e-4 0.0016389 0 6.2966e-4 -1.2039e-4 0.0011946-3.6114e-4 0.0016946-2.4073e-4 4.9997e-4 -5.741e-4 8.9787e-4 -1e-3 0.0011942-4.2607e-4 2.7778e-4 -9.3557e-4 4.1679e-4 -0.001528 4.1679e-4 -5.7421e-4 0-0.001083-1.3901e-4 -0.001528-4.1679e-4 -4.2593e-4 -2.9627e-4 -7.593e-4 -6.9417e-4 -1e-3 -0.0011942-2.4075e-4 -5.0003e-4 -3.6113e-4 -0.001065-3.6113e-4 -0.0016946 0-6.2963e-4 1.2038e-4 -0.001176 3.6113e-4 -0.0016389 2.4074e-4 -4.8149e-4 5.7411e-4 -8.61e-4 1e-3 -0.0011388 4.359e-4 -2.9051e-4 9.3416e-4 -4.3882e-4 0.001495-4.4449e-4z" fill="#fff" stroke-opacity="0"/>
</svg>
