<svg width="17.778in" height="10.681in" version="1.1" viewBox="0 0 .24692 .14835" xmlns="http://www.w3.org/2000/svg" xmlns:cc="http://creativecommons.org/ns#" xmlns:dc="http://purl.org/dc/elements/1.1/" xmlns:rdf="http://www.w3.org/1999/02/22-rdf-syntax-ns#">
 <defs>
  <filter id="b" x="-.011875" y="-.019766" width="1.0238" height="1.0395" color-interpolation-filters="sRGB">
   <feGaussianBlur stdDeviation="0.00035573754"/>
  </filter>
  <filter id="a" x="-.011875" y="-.019766" width="1.0238" height="1.0395" color-interpolation-filters="sRGB">
   <feGaussianBlur stdDeviation="10.409885"/>
  </filter>
 </defs>
 <title>box</title>
 <path transform="matrix(3.4173e-5 0 0 3.4173e-5 .0716 .022385)" d="m-2095.2-655.04h7225.5v4341.1h-7225.5z" fill="#d1d1d1"/>
 <path transform="matrix(3.4173e-5 0 0 3.4173e-5 .0716 .022385)" d="m-2095.2-655.04v4341.1h7225.5v-4341.1zm3612.7 49.563a361.76 361.76 0 0 1 180.88 48.463l1523.7 879.68a361.76 361.76 0 0 1 180.88 313.3v1759.1a361.76 361.76 0 0 1-180.88 313.3l-1523.6 879.66a361.76 361.76 0 0 1-361.76 0l-1523.7-879.69a361.76 361.76 0 0 1-180.88-313.29l-0.0413-1758.9a361.75 361.75 0 0 1 180.86-313.29l1523.7-879.72a361.76 361.76 0 0 1 180.88-48.463zm0 281.73 0.01 0.0827a313.71 313.71 0 0 0-156.86 42.022l-1321.3 762.86a313.7 313.7 0 0 0-156.84 271.68l0.0413 1525.3a313.71 313.71 0 0 0 156.85 271.68l1321.3 762.85a313.71 313.71 0 0 0 313.71 0l1321.2-762.82a313.71 313.71 0 0 0 156.86-271.68v-1525.4a313.71 313.71 0 0 0-156.86-271.68l-1321.3-762.84a313.71 313.71 0 0 0-156.86-42.022zm0 150.69a313.71 313.71 0 0 1 156.86 42.03l1190.8 687.53a313.71 313.71 0 0 1 156.85 271.68v1374.8a313.71 313.71 0 0 1-156.85 271.68l-1190.8 687.5a313.71 313.71 0 0 1-313.71 0l-1190.8-687.53a313.71 313.71 0 0 1-156.86-271.68l-0.033076-1374.7a313.7 313.7 0 0 1 156.84-271.68l1190.9-687.55a313.71 313.71 0 0 1 156.85-42.022zm0.033 345.19a229.14 229.14 0 0 0-114.57 30.694l-903.28 521.51a76.379 76.379 0 0 0 0 132.29l903.44 521.6a229.14 229.14 0 0 0 229.14 0l903.28-521.51a76.379 76.379 0 0 0 0-132.29l-903.44-521.6a229.14 229.14 0 0 0-114.57-30.694zm1109.9 781.51a76.379 76.379 0 0 0-30.206 9.8151l-903.43 521.6a229.14 229.14 0 0 0-114.57 198.44v1043a76.379 76.379 0 0 0 114.57 66.15l903.43-521.6a229.14 229.14 0 0 0 114.57-198.43v-1043a76.379 76.379 0 0 0-84.366-75.966zm-2241 0.72765a76.379 76.379 0 0 0-63.116 75.213v1043a229.14 229.14 0 0 0 114.57 198.44l903.44 521.6a76.379 76.379 0 0 0 114.57-66.142v-1043a229.14 229.14 0 0 0-114.57-198.44l-903.44-521.6a76.379 76.379 0 0 0-51.457-9.0709z" fill="#666" fill-opacity=".33" filter="url(#a)" stroke-opacity="0"/>
 <path d="m5.7871e-4 8.6806e-4v0.14835h0.24692v-0.14835zm0.12346 0.0016937a0.012362 0.012362 0 0 1 0.006181 0.0016561l0.052068 0.030061a0.012362 0.012362 0 0 1 0.006181 0.010706v0.060113a0.012362 0.012362 0 0 1-0.006181 0.010706l-0.052067 0.030061a0.012362 0.012362 0 0 1-0.012362 0l-0.052069-0.030062a0.012362 0.012362 0 0 1-0.0061812-0.010706l-1.41e-6 -0.060108a0.012362 0.012362 0 0 1 0.0061806-0.010706l0.052069-0.030063a0.012362 0.012362 0 0 1 0.006181-0.0016562zm0 0.0096274 3.4e-7 2.83e-6a0.01072 0.01072 0 0 0-0.00536 0.001436l-0.045153 0.026069a0.01072 0.01072 0 0 0-0.0053598 0.0092841l1.41e-6 0.052123a0.01072 0.01072 0 0 0 0.0053601 0.009284l0.045153 0.026069a0.01072 0.01072 0 0 0 0.01072 0l0.04515-0.026068a0.01072 0.01072 0 0 0 0.00536-0.009284v-0.052128a0.01072 0.01072 0 0 0-0.00536-0.0092841l-0.045152-0.026069a0.01072 0.01072 0 0 0-0.00536-0.001436zm0 0.0051496a0.01072 0.01072 0 0 1 0.00536 0.0014363l0.040694 0.023495a0.01072 0.01072 0 0 1 0.00536 0.0092841v0.046982a0.01072 0.01072 0 0 1-0.00536 0.0092841l-0.040694 0.023494a0.01072 0.01072 0 0 1-0.01072 0l-0.040694-0.023495a0.01072 0.01072 0 0 1-0.0053603-0.0092841l-1.13e-6 -0.046977a0.01072 0.01072 0 0 1 0.0053598-0.0092841l0.040695-0.023496a0.01072 0.01072 0 0 1 0.00536-0.001436zm1.13e-6 0.011796a0.0078304 0.0078304 0 0 0-0.003915 0.0010489l-0.030868 0.017822a0.0026101 0.0026101 0 0 0 0 0.0045208l0.030873 0.017825a0.0078304 0.0078304 0 0 0 0.00783 0l0.030868-0.017821a0.0026101 0.0026101 0 0 0 0-0.0045208l-0.030873-0.017825a0.0078304 0.0078304 0 0 0-0.0039153-0.0010489zm0.037928 0.026707a0.0026101 0.0026101 0 0 0-0.001032 3.3541e-4l-0.030873 0.017825a0.0078304 0.0078304 0 0 0-0.003915 0.0067814v0.035642a0.0026101 0.0026101 0 0 0 0.003915 0.002261l0.030873-0.017825a0.0078304 0.0078304 0 0 0 0.003915-0.0067811v-0.035643a0.0026101 0.0026101 0 0 0-0.002883-0.0025959zm-0.076581 2.487e-5a0.0026101 0.0026101 0 0 0-0.0021569 0.0025703v0.035643a0.0078304 0.0078304 0 0 0 0.0039153 0.0067814l0.030873 0.017824a0.0026101 0.0026101 0 0 0 0.003915-0.00226v-0.035643a0.0078304 0.0078304 0 0 0-0.003915-0.0067814l-0.030873-0.017825a0.0026101 0.0026101 0 0 0-0.0017584-3.0994e-4z" fill="#666" fill-opacity=".33" filter="url(#b)" stroke-opacity="0" style="mix-blend-mode:normal"/>
 <path transform="matrix(3.4173e-5 0 0 3.4173e-5 .0716 .022385)" d="m-2095.2-655.04v4341.1h7225.5v-4341.1zm3612.7 49.563a361.76 361.76 0 0 1 180.88 48.463l1523.7 879.68a361.76 361.76 0 0 1 180.88 313.3v1759.1a361.76 361.76 0 0 1-180.88 313.3l-1523.6 879.66a361.76 361.76 0 0 1-361.76 0l-1523.7-879.69a361.76 361.76 0 0 1-180.88-313.29l-0.0413-1758.9a361.75 361.75 0 0 1 180.86-313.29l1523.7-879.72a361.76 361.76 0 0 1 180.88-48.463zm0 281.73 0.01 0.0827a313.71 313.71 0 0 0-156.86 42.022l-1321.3 762.86a313.7 313.7 0 0 0-156.84 271.68l0.0413 1525.3a313.71 313.71 0 0 0 156.85 271.68l1321.3 762.85a313.71 313.71 0 0 0 313.71 0l1321.2-762.82a313.71 313.71 0 0 0 156.86-271.68v-1525.4a313.71 313.71 0 0 0-156.86-271.68l-1321.3-762.84a313.71 313.71 0 0 0-156.86-42.022zm0 150.69a313.71 313.71 0 0 1 156.86 42.03l1190.8 687.53a313.71 313.71 0 0 1 156.85 271.68v1374.8a313.71 313.71 0 0 1-156.85 271.68l-1190.8 687.5a313.71 313.71 0 0 1-313.71 0l-1190.8-687.53a313.71 313.71 0 0 1-156.86-271.68l-0.033076-1374.7a313.7 313.7 0 0 1 156.84-271.68l1190.9-687.55a313.71 313.71 0 0 1 156.85-42.022zm0.033 345.19a229.14 229.14 0 0 0-114.57 30.694l-903.28 521.51a76.379 76.379 0 0 0 0 132.29l903.44 521.6a229.14 229.14 0 0 0 229.14 0l903.28-521.51a76.379 76.379 0 0 0 0-132.29l-903.44-521.6a229.14 229.14 0 0 0-114.57-30.694zm1109.9 781.51a76.379 76.379 0 0 0-30.206 9.8151l-903.43 521.6a229.14 229.14 0 0 0-114.57 198.44v1043a76.379 76.379 0 0 0 114.57 66.15l903.43-521.6a229.14 229.14 0 0 0 114.57-198.43v-1043a76.379 76.379 0 0 0-84.366-75.966zm-2241 0.72765a76.379 76.379 0 0 0-63.116 75.213v1043a229.14 229.14 0 0 0 114.57 198.44l903.44 521.6a76.379 76.379 0 0 0 114.57-66.142v-1043a229.14 229.14 0 0 0-114.57-198.44l-903.44-521.6a76.379 76.379 0 0 0-51.457-9.0709z" fill="#fff" stroke-opacity="0"/>
 <path transform="matrix(3.4173e-5 0 0 3.4173e-5 .0716 .022385)" d="m-2095.2-655.04v4341.1h7225.5v-4341.1zm3612.7 49.563a361.76 361.76 0 0 1 180.88 48.463l1523.7 879.68a361.76 361.76 0 0 1 180.88 313.3v1759.1a361.76 361.76 0 0 1-180.88 313.3l-1523.6 879.66a361.76 361.76 0 0 1-361.76 0l-1523.7-879.69a361.76 361.76 0 0 1-180.88-313.29l-0.0413-1758.9a361.75 361.75 0 0 1 180.86-313.29l1523.7-879.72a361.76 361.76 0 0 1 180.88-48.463zm0 281.73 0.01 0.0827a313.71 313.71 0 0 0-156.86 42.022l-1321.3 762.86a313.7 313.7 0 0 0-156.84 271.68l0.0413 1525.3a313.71 313.71 0 0 0 156.85 271.68l1321.3 762.85a313.71 313.71 0 0 0 313.71 0l1321.2-762.82a313.71 313.71 0 0 0 156.86-271.68v-1525.4a313.71 313.71 0 0 0-156.86-271.68l-1321.3-762.84a313.71 313.71 0 0 0-156.86-42.022zm0 150.69a313.71 313.71 0 0 1 156.86 42.03l1190.8 687.53a313.71 313.71 0 0 1 156.85 271.68v1374.8a313.71 313.71 0 0 1-156.85 271.68l-1190.8 687.5a313.71 313.71 0 0 1-313.71 0l-1190.8-687.53a313.71 313.71 0 0 1-156.86-271.68l-0.033076-1374.7a313.7 313.7 0 0 1 156.84-271.68l1190.9-687.55a313.71 313.71 0 0 1 156.85-42.022zm0.033 345.19a229.14 229.14 0 0 0-114.57 30.694l-903.28 521.51a76.379 76.379 0 0 0 0 132.29l903.44 521.6a229.14 229.14 0 0 0 229.14 0l903.28-521.51a76.379 76.379 0 0 0 0-132.29l-903.44-521.6a229.14 229.14 0 0 0-114.57-30.694zm1109.9 781.51a76.379 76.379 0 0 0-30.206 9.8151l-903.43 521.6a229.14 229.14 0 0 0-114.57 198.44v1043a76.379 76.379 0 0 0 114.57 66.15l903.43-521.6a229.14 229.14 0 0 0 114.57-198.43v-1043a76.379 76.379 0 0 0-84.366-75.966zm-2241 0.72765a76.379 76.379 0 0 0-63.116 75.213v1043a229.14 229.14 0 0 0 114.57 198.44l903.44 521.6a76.379 76.379 0 0 0 114.57-66.142v-1043a229.14 229.14 0 0 0-114.57-198.44l-903.44-521.6a76.379 76.379 0 0 0-51.457-9.0709z" display="none" fill="#fff" stroke-opacity="0"/>
 <metadata>
  <rdf:RDF>
   <cc:Work rdf:about="">
    <dc:date>16-Jun-2023</dc:date>
    <dc:creator>
     <cc:Agent>
      <dc:title>Yousuf Ahmed Antu</dc:title>
     </cc:Agent>
    </dc:creator>
    <dc:publisher>
     <cc:Agent>
      <dc:title>https://github.com/YousufAntu/covers/</dc:title>
     </cc:Agent>
    </dc:publisher>
    <dc:language>English</dc:language>
    <dc:contributor>
     <cc:Agent>
      <dc:title>Yousuf Ahmed Antu</dc:title>
     </cc:Agent>
    </dc:contributor>
    <dc:title>box</dc:title>
    <cc:license rdf:resource="https://www.apache.org/licenses/LICENSE-2.0"/>
   </cc:Work>
  </rdf:RDF>
 </metadata>
</svg>
