<svg width="17.778in" height="10.681in" version="1.1" viewBox="0 0 .24692 .14835" xmlns="http://www.w3.org/2000/svg" xmlns:cc="http://creativecommons.org/ns#" xmlns:dc="http://purl.org/dc/elements/1.1/" xmlns:rdf="http://www.w3.org/1999/02/22-rdf-syntax-ns#">
 <title>nano</title>
 <defs>
  <linearGradient id="a" x1="3246.3" x2="479.64" y1="2334.2" y2="2847" gradientTransform="matrix(2.5636,0,0,2.5636,-2912.9,-3941)" gradientUnits="userSpaceOnUse">
   <stop stop-color="#c9d6ea" offset="0"/>
   <stop stop-color="#dee8f2" offset=".17153"/>
   <stop stop-color="#bdcff2" offset=".49786"/>
   <stop stop-color="#eaf5f8" offset=".75019"/>
   <stop stop-color="#c4d6ed" offset="1"/>
  </linearGradient>
  <linearGradient id="g" x1="1730.8" x2="1825" y1="2407.8" y2="2409.7" gradientTransform="matrix(3.4151 0 0 3.4151 -4388.8 -5923.9)" gradientUnits="userSpaceOnUse">
   <stop stop-color="#c4d5e8" offset="0"/>
   <stop stop-color="#dae6f1" offset="1"/>
  </linearGradient>
  <linearGradient id="f" x1="1913.6" x2="1975.9" y1="2518.8" y2="2438.7" gradientTransform="matrix(3.4151 0 0 3.4151 -4388.8 -5923.9)" gradientUnits="userSpaceOnUse">
   <stop stop-color="#d1deed" offset="0"/>
   <stop stop-color="#d7e2ef" offset="1"/>
  </linearGradient>
  <linearGradient id="e" x1="1897.5" x2="1794.5" y1="2439.7" y2="2443.3" gradientTransform="matrix(3.4151 0 0 3.4151 -4388.8 -5923.9)" gradientUnits="userSpaceOnUse">
   <stop stop-color="#c4d5e8" offset="0"/>
   <stop stop-color="#dae6f1" offset="1"/>
  </linearGradient>
  <linearGradient id="d" x1="1771.4" x2="1718.5" y1="2514.8" y2="2488.9" gradientTransform="matrix(3.4151 0 0 3.4151 -4388.8 -5923.9)" gradientUnits="userSpaceOnUse">
   <stop stop-color="#d8e4f0" offset="0"/>
   <stop stop-color="#c6d6e9" offset="1"/>
  </linearGradient>
  <linearGradient id="c" x1="1999.2" x2="2066" y1="2549.5" y2="2404.1" gradientTransform="matrix(3.4151 0 0 3.4151 -4388.8 -5923.9)" gradientUnits="userSpaceOnUse">
   <stop stop-color="#d6e1ef" offset="0"/>
   <stop stop-color="#d7e2f0" offset="1"/>
  </linearGradient>
  <linearGradient id="l" x1="3261.6" x2="3402.9" y1="1657.5" y2="1627.7" gradientTransform="matrix(2.7708 .6419 -2.3374 3.6677 -4388.8 -5923.9)" gradientUnits="userSpaceOnUse">
   <stop stop-color="#e5edf5" offset="0"/>
   <stop stop-color="#d7e2ef" offset="1"/>
  </linearGradient>
  <linearGradient id="k" x1="3897" x2="4201.4" y1="1650.1" y2="1691" gradientTransform="matrix(2.7708 .6419 -2.3374 3.6677 -4388.8 -5923.9)" gradientUnits="userSpaceOnUse">
   <stop stop-color="#c2d4e5" offset="0"/>
   <stop stop-color="#a2addd" offset="1"/>
  </linearGradient>
  <linearGradient id="j" x1="3279" x2="3384.4" y1="1742.5" y2="1522.6" gradientTransform="matrix(2.7708 .6419 -2.3374 3.6677 -4388.8 -5923.9)" gradientUnits="userSpaceOnUse">
   <stop stop-color="#c1c6e6" offset="0"/>
   <stop stop-color="#a5c0d9" offset="1"/>
  </linearGradient>
  <linearGradient id="i" x1="3429.8" x2="3701.8" y1="1622.7" y2="1638.7" gradientTransform="matrix(2.7708 .6419 -2.3374 3.6677 -4388.8 -5923.9)" gradientUnits="userSpaceOnUse">
   <stop stop-color="#c1c7e6" offset="0"/>
   <stop stop-color="#a2c1dd" offset="1"/>
  </linearGradient>
  <linearGradient id="h" x1="1827.7" x2="2063.7" y1="2570.7" y2="2354.4" gradientTransform="matrix(3.4151 0 0 3.4151 -4388.8 -5923.9)" gradientUnits="userSpaceOnUse">
   <stop stop-color="#9fb9e0" offset="0"/>
   <stop stop-color="#bec7e9" offset="1"/>
  </linearGradient>
  <linearGradient id="b" x1="3380.1" x2="3491" y1="1652.7" y2="1634.7" gradientTransform="matrix(2.7708 .6419 -2.3374 3.6677 -4388.8 -5923.9)" gradientUnits="userSpaceOnUse">
   <stop stop-color="#dae5f1" offset="0"/>
   <stop stop-color="#ccdaeb" offset="1"/>
  </linearGradient>
  <filter id="n" x="-.0097212" y="-.011793" width="1.0194" height="1.0236" color-interpolation-filters="sRGB">
   <feGaussianBlur stdDeviation="6.8703836"/>
  </filter>
  <linearGradient id="m" x1="5135.4" x2="4750.6" y1="4013" y2="3413.6" gradientUnits="userSpaceOnUse">
   <stop stop-opacity=".29395" offset="0"/>
   <stop stop-opacity="0" offset="1"/>
  </linearGradient>
 </defs>
 <g transform="matrix(3.0868e-5 0 0 3.0868e-5 .064999 -.010993)">
  <path transform="translate(1.4248e-5)" d="m-2105.7 356.12v4805.8h7999.1v-4805.8z" fill="#e2eceb" stroke-opacity="0"/>
  <path transform="translate(1.4248e-5)" d="m5893.4 1426.1-7999.1 1527.6v2208.3h7999.1z" fill="#ccdedb" stroke-opacity="0"/>
  <path transform="matrix(3.1416 .72775 -2.9024 1.4056 -2958.4 -4406.1)" d="m4618.3 3073.7 994-207.67c56.881-11.884 85.604 14.703 64.4 59.612l-482.87 1022.7c-21.204 44.909-84.066 90.63-140.95 102.51l-994 207.67c-56.881 11.884-85.604-14.703-64.4-59.612l482.87-1022.7c21.204-44.909 84.066-90.63 140.95-102.51z" fill="url(#m)" filter="url(#n)" opacity=".34649" style="mix-blend-mode:normal"/>
  <path transform="matrix(1.3868 0 0 1.3868 -692.49 -672.75)" d="m2267.5 1185.8c-143.13 1.0268-300.85 31.226-408.49 83.355l-3565.6 1726.7c-74.248 35.956-110.95 75.704-110.95 111.73v153.82c0 39.959 45.134 75.356 134.24 95.998l2961.6 686.07c169.48 39.26 431.96 9.8247 588.53-65.999l3565.6-1726.7c74.248-35.956 110.97-75.7 110.95-111.73l0.026-153.81c0-39.959-45.158-75.362-134.27-96.005l-2961.6-686.07c-52.962-12.269-115.01-17.829-180.07-17.362zm0 153.81c65.06-0.4691 127.11 5.0913 180.07 17.36l2961.6 686.07c29.488 6.831 54.125 15.288 73.936 24.983-14.324 9.816-31.191 19.508-50.666 28.94l-3565.6 1726.7c-156.59 75.835-419.08 105.27-588.55 66.011l-2961.6-686.07c-29.498-6.8335-54.143-15.291-73.958-24.988 14.324-9.8158 31.19-19.509 50.664-28.94l3565.6-1726.7c107.64-52.129 265.36-82.337 408.49-83.37z" fill="url(#a)" stroke-opacity="0"/>
  <path transform="matrix(1.3868 0 0 1.3868 -692.49 -672.75)" d="m2447.6 1203.1 2961.6 686.07c169.48 39.26 179.87 131.91 23.295 207.73l-3565.6 1726.7c-156.57 75.824-419.06 105.26-588.54 66l-2961.6-686.07c-169.48-39.26-179.87-131.91-23.295-207.73l3565.6-1726.7c156.57-75.824 419.06-105.26 588.54-66z" fill="#fff" fill-rule="evenodd" stroke-opacity="0" style="mix-blend-mode:normal"/>
  <path transform="matrix(1.3868 0 0 1.3868 -692.49 -672.75)" d="m2645.6 2209.4a1.0126 1.7631 43.476 0 0-0.1639 0.1292c13.904 32.006 16.994 69.22 9.228 111.67-8.9763 49.057-30.938 101.01-65.887 155.85l-241.01 378.19 253.3-155.73 28.892-20.474a59.256 103.17 43.476 0 0 62.297-82.09 416.11 724.5 43.476 0 0-14.946-334.2l-30.658-53.099a1.0126 1.7631 43.476 0 0-1.0464-0.2426z" fill="url(#c)" fill-rule="evenodd" opacity=".84" stroke-width="1.3322"/>
  <path transform="matrix(1.3868 0 0 1.3868 -692.49 -672.75)" d="m2399.7 2295.3c-12.961 0.1536-26.704 2.9821-41.228 8.4909-21.34 7.8402-42.499 20.639-63.473 38.398-20.429 16.902-38.015 36.92-52.759 60.056l-238.36 374.03 250.99-154.34s31.496-17.326 54.84-23.05c23.134-5.6732 33.69-7.6461 33.879-7.6815l91.891-144.19c14.744-23.136 23.915-45.106 27.513-65.907 4.1446-21.658 2.3213-39.781-5.4687-54.369-6.5963-15.296-18.958-25.043-37.083-29.244-5.8662-1.3588-11.917-2.089-18.151-2.1883h-2.581z" fill="url(#f)" fill-rule="evenodd" opacity=".83991" stroke-width="1.3322"/>
  <path transform="matrix(1.3868 0 0 1.3868 -692.49 -672.75)" d="m2027.2 2077.2c9.4612 25.522 12.724 54.521 9.7266 87.027v0.041l-0.035 0.2151c-1.212 13.006-3.4028 26.561-6.6071 40.683-8.3661 40.062-24.004 82.068-46.857 126l-0.089 0.2151-0.1878 0.3141c-9.7208 18.648-20.712 37.636-33.042 56.982l-208.88 327.76s170.81-97.959 220.81-135.99c49.985-38.029 67.162-45.702 86.094-79.999 36.219-65.614 46.346-146.12 41.733-220.94-3.7567-60.928-45.4-162.44-62.664-202.32z" fill="url(#e)" fill-rule="evenodd" opacity=".84" stroke-width="1.3322"/>
  <path transform="matrix(1.3868 0 0 1.3868 -692.49 -672.75)" d="m1771.3 2152.2c-16.882-0.1093-34.711 3.7477-53.485 11.568-26.762 10.518-52.867 27.581-78.311 51.188-25.446 23.607-48.27 51.264-68.474 82.968-20.751 32.562-35.058 63.174-42.925 91.836-7.8658 28.663-7.975 52.732-0.3279 72.206 8.0552 18.299 23.426 30.196 46.079 35.725 0.041-0.035 6.3587-4.3659 9.7396-6.1967 22.957-12.434 46.543-24.152 71.325-32.369 16.98-5.6295 45.786-11.311 63.944-14.619 3.0982-2.7151 6.1883-5.5067 9.2676-8.405 25.99-24.464 49.362-52.976 70.114-85.538 20.205-31.705 33.967-61.46 41.288-89.267 7.3196-27.806 6.8824-51.016-1.3125-69.633-7.0009-19.323-21.831-31.61-44.489-36.858-7.2826-1.6875-14.76-2.5566-22.432-2.6055z" fill="url(#g)" fill-rule="evenodd" stroke-width="1.3322"/>
  <path transform="matrix(1.3868 0 0 1.3868 -692.49 -672.75)" d="m1656.9 2576c-23.807 21.036-48.84 39.331-75.095 54.884-25.709 14.695-52.197 24.785-79.465 30.269-7.3523 1.5558-14.756 2.604-22.202 3.2385v0.048s69.824-4.1367 104.36-9.3447c8.1844-1.2342 19.716-3.6337 30.26-5.9673l46.03-72.227z" fill="url(#d)" fill-rule="evenodd" opacity=".84" stroke-width="1.3322"/>
  <path transform="matrix(1.3868 0 0 1.3868 -692.49 -672.75)" d="m1416.3 1925.2a1.0126 1.7631 43.476 0 0-0.1628 0.1306c13.904 32.006 16.994 69.22 9.2279 111.67-8.9761 49.057-30.938 101.01-65.887 155.85l-241.01 378.19 253.3-155.73 28.892-20.474a59.256 103.17 43.476 0 0 62.297-82.09 416.11 724.5 43.476 0 0-14.946-334.2l-30.658-53.098a1.0126 1.7631 43.476 0 0-1.0463-0.2425z" fill="url(#b)" fill-rule="evenodd" opacity=".84" stroke-width="1.3322"/>
  <path transform="matrix(1.3868 0 0 1.3868 -692.49 -672.75)" d="m1170 2011.4c-12.961 0.1521-26.704 2.982-41.228 8.4908-21.34 7.84-42.499 20.639-63.474 38.398-20.429 16.902-38.014 36.921-52.759 60.056l-238.36 374.03 250.99-154.34s31.496-17.326 54.84-23.05c23.134-5.673 33.69-7.6458 33.88-7.6815l91.891-144.19c14.744-23.136 23.915-45.106 27.513-65.907 4.1445-21.658 2.3214-39.781-5.4687-54.369-6.5962-15.296-18.958-25.043-37.083-29.244-5.8663-1.3589-11.917-2.089-18.151-2.1883-0.8572-0.013-1.7169-0.015-2.581 0z" fill="url(#l)" fill-rule="evenodd" opacity=".84" stroke-width="1.3322"/>
  <path transform="matrix(1.3868 0 0 1.3868 -692.49 -672.75)" d="m3032.1 2646.4c-13.825-0.056-27.934 0.3026-42.327 1.0767-60.834 2.9474-120.74 12.432-179.71 28.451-57.749 15.815-108.75 37.324-153 64.528-43.672 26.85-71.401 53.741-83.184 80.674-11.136 27.08-6.3971 51.512 14.214 73.294 20.61 21.782 56.446 38.578 107.51 50.388 50.408 11.678 106.05 16.017 166.88 13.069 60.836-2.948 120.41-12.507 178.74-28.676 58.969-16.019 110.29-37.455 153.96-64.305 44.246-27.203 71.652-54.168 82.214-80.897 11.783-26.931 7.3679-51.29-13.243-73.072-19.39-21.986-54.616-38.883-105.68-50.691-19.146-4.4353-39.028-7.7947-59.63-10.099-21.462-2.3996-43.715-3.645-66.756-3.7391zm-46.971 79.43c11.72-0.08 23.025 0.5506 33.909 1.8927 7.9161 0.9757 15.612 2.329 23.086 4.0568 23.911 5.5396 39.428 13.495 46.538 23.888 7.1089 10.396 6.8932 22.014-0.6506 34.855-7.545 12.84-21.947 25.796-43.209 38.867-21.837 13.426-46.221 24.315-73.156 32.671-26.935 8.3563-54.3 13.697-82.097 16.02-27.797 2.3237-53.654 0.7204-77.57-4.8112-23.911-5.5395-39.753-13.569-47.509-24.113-7.109-10.395-6.8916-22.011 0.6509-34.853 7.5447-12.84 22.235-25.974 44.072-39.4 21.261-13.072 45.359-23.786 72.294-32.141 26.935-8.3565 54.3-13.697 82.097-16.021 7.3325-0.5604 14.514-0.8649 21.546-0.9132z" fill="url(#k)" fill-rule="evenodd" stroke-opacity="0" stroke-width="1.3322"/>
  <path transform="matrix(1.3868 0 0 1.3868 -692.49 -672.75)" d="m1243.9 1833.3c-32.743-0.4408-66.139 4.9225-100.19 16.088-53.827 18.015-104.97 46.977-153.44 86.886-48.464 39.91-90.171 87.286-125.12 142.13l-241.64 379.17 150.51 34.868 238.36-374.03c14.744-23.136 32.33-43.154 52.759-60.056 20.975-17.759 42.134-30.557 63.474-38.398 22.535-8.5471 43.187-10.647 61.96-6.298 18.125 4.1991 30.486 13.948 37.083 29.244 7.7901 14.588 9.6131 32.711 5.4686 54.369-3.5985 20.8-12.769 42.77-27.513 65.907l-238.36 374.03 150.51 34.868 241.64-379.17c34.949-54.841 56.911-106.79 65.887-155.85 8.9759-49.058 3.4797-91.141-16.49-126.25-19.322-34.961-54.878-58.442-106.66-70.441-19.178-4.4427-38.587-6.7971-58.234-7.0614z" fill="url(#j)" fill-rule="evenodd" stroke-width="1.3322"/>
  <path transform="matrix(1.3868 0 0 1.3868 -692.49 -672.75)" d="m1844.1 1973.3c-35.659 0.036-72.379 6.7415-110.16 20.117-59.794 21.55-117.62 56.34-173.49 104.37-55.321 47.172-104.28 104.17-146.87 171.01-40.956 64.266-68.429 124.28-82.421 180.04-13.447 54.905-12.897 101.25 1.6522 139.04 14.548 37.789 43.833 61.784 87.852 71.982 27.836 6.4486 55.064 6.8556 81.684 1.222 27.268-5.4835 53.755-15.573 79.465-30.269 26.256-15.552 51.288-33.846 75.095-54.884l3.885 0.9-67.169 105.4 147.59 34.194 208.88-327.76c41.502-65.124 68.228-126.29 80.177-183.52 13.142-57.926 9.5256-106.46-10.849-145.6-19.182-39.846-56.609-66.216-112.28-79.114-20.634-4.7802-41.647-7.1603-63.043-7.1384zm-72.732 178.9c7.6732 0.049 15.151 0.9182 22.432 2.6053 22.657 5.2489 37.487 17.534 44.489 36.858 8.1951 18.616 8.6325 41.826 1.3129 69.632-7.3199 27.806-21.083 57.561-41.288 89.267-20.751 32.562-44.122 61.074-70.114 85.538s-52.643 42.384-79.951 53.758c-26.114 10.668-50.5 13.378-73.156 8.1292-23.305-5.3988-39.054-17.406-47.249-36.022-7.6487-19.474-7.5395-43.542 0.3264-72.206 7.8658-28.664 22.174-59.274 42.925-91.836 20.205-31.705 43.029-59.361 68.474-82.968s51.549-40.671 78.311-51.188c18.774-7.8203 36.602-11.676 53.485-11.568z" fill="url(#i)" fill-rule="evenodd" stroke-width="1.3322"/>
  <path transform="matrix(1.3868 0 0 1.3868 -692.49 -672.75)" d="m2473.4 2116.8c-32.744-0.4409-66.139 4.9222-100.19 16.088-53.827 18.015-104.97 46.977-153.44 86.886-48.464 39.91-90.171 87.286-125.12 142.13l-241.64 379.17 150.51 34.868 238.36-374.03c14.744-23.137 32.33-43.154 52.759-60.056 20.975-17.759 42.134-30.557 63.473-38.398 22.535-8.547 43.187-10.647 61.96-6.2981 18.125 4.1992 30.488 13.948 37.083 29.244 7.7899 14.588 9.6132 32.711 5.4686 54.37-3.5984 20.802-12.769 42.77-27.513 65.907l-238.36 374.03 150.51 34.868 241.64-379.17c34.949-54.841 56.911-106.79 65.887-155.85 8.976-49.057 3.4798-91.141-16.489-126.25-19.322-34.961-54.878-58.442-106.66-70.439-19.178-4.443-38.587-6.7971-58.234-7.0614z" fill="url(#h)" fill-rule="evenodd" stroke-width="1.3322"/>
 </g>
 <metadata>
  <rdf:RDF>
   <cc:Work rdf:about="">
    <dc:creator>
     <cc:Agent>
      <dc:title>Yousuf Ahmed Antu</dc:title>
     </cc:Agent>
    </dc:creator>
    <dc:publisher>
     <cc:Agent>
      <dc:title>https://github.com/YousufAntu/covers/</dc:title>
     </cc:Agent>
    </dc:publisher>
    <dc:language>English</dc:language>
    <dc:contributor>
     <cc:Agent>
      <dc:title>Yousuf Ahmed Antu</dc:title>
     </cc:Agent>
    </dc:contributor>
    <cc:license rdf:resource="https://www.apache.org/licenses/LICENSE-2.0"/>
    <dc:title>nano</dc:title>
   </cc:Work>
  </rdf:RDF>
 </metadata>
</svg>
