<svg width="17.778in" height="10.681in" version="1.1" viewBox="0 0 .24692 .14835" xmlns="http://www.w3.org/2000/svg" xmlns:cc="http://creativecommons.org/ns#" xmlns:dc="http://purl.org/dc/elements/1.1/" xmlns:rdf="http://www.w3.org/1999/02/22-rdf-syntax-ns#" xmlns:xlink="http://www.w3.org/1999/xlink">
 <title>nano</title>
 <defs>
  <linearGradient id="a" x1="3246.3" x2="479.64" y1="2334.2" y2="2847" gradientTransform="matrix(2.5636 0 0 2.5636 -2912.9 -3941)" gradientUnits="userSpaceOnUse">
   <stop stop-color="#c9d6ea" offset="0"/>
   <stop stop-color="#dee8f2" offset=".17153"/>
   <stop stop-color="#bdcff2" offset=".49786"/>
   <stop stop-color="#eaf5f8" offset=".75019"/>
   <stop stop-color="#c4d6ed" offset="1"/>
  </linearGradient>
  <linearGradient id="g" x1="1730.8" x2="1825" y1="2407.8" y2="2409.7" gradientTransform="matrix(2.5636 0 0 2.5636 -2807.4 -3849.4)" gradientUnits="userSpaceOnUse">
   <stop stop-color="#c4d5e8" offset="0"/>
   <stop stop-color="#dae6f1" offset="1"/>
  </linearGradient>
  <linearGradient id="f" x1="1913.6" x2="1975.9" y1="2518.8" y2="2438.7" gradientTransform="matrix(2.5636 0 0 2.5636 -2807.4 -3849.4)" gradientUnits="userSpaceOnUse">
   <stop stop-color="#d1deed" offset="0"/>
   <stop stop-color="#d7e2ef" offset="1"/>
  </linearGradient>
  <linearGradient id="e" x1="1897.5" x2="1794.5" y1="2439.7" y2="2443.3" gradientTransform="matrix(2.5636 0 0 2.5636 -2807.4 -3849.4)" gradientUnits="userSpaceOnUse">
   <stop stop-color="#c4d5e8" offset="0"/>
   <stop stop-color="#dae6f1" offset="1"/>
  </linearGradient>
  <linearGradient id="d" x1="1771.4" x2="1718.5" y1="2514.8" y2="2488.9" gradientTransform="matrix(2.5636 0 0 2.5636 -2807.4 -3849.4)" gradientUnits="userSpaceOnUse">
   <stop stop-color="#d8e4f0" offset="0"/>
   <stop stop-color="#c6d6e9" offset="1"/>
  </linearGradient>
  <linearGradient id="c" x1="1999.2" x2="2066" y1="2549.5" y2="2404.1" gradientTransform="matrix(2.5636 0 0 2.5636 -2807.4 -3849.4)" gradientUnits="userSpaceOnUse">
   <stop stop-color="#d6e1ef" offset="0"/>
   <stop stop-color="#d7e2f0" offset="1"/>
  </linearGradient>
  <linearGradient id="l" x1="3261.6" x2="3402.9" y1="1657.5" y2="1627.7" gradientTransform="matrix(2.0799 .48185 -1.7546 2.7532 -2807.4 -3849.4)" gradientUnits="userSpaceOnUse">
   <stop stop-color="#e5edf5" offset="0"/>
   <stop stop-color="#d7e2ef" offset="1"/>
  </linearGradient>
  <linearGradient id="k" x1="3897" x2="4201.4" y1="1650.1" y2="1691" gradientTransform="matrix(2.0799 .48185 -1.7546 2.7532 -2807.4 -3849.4)" gradientUnits="userSpaceOnUse">
   <stop stop-color="#c2d4e5" offset="0"/>
   <stop stop-color="#c1c7e6" offset="1"/>
  </linearGradient>
  <linearGradient id="j" x1="3279" x2="3384.4" y1="1742.5" y2="1522.6" gradientTransform="matrix(2.0799 .48185 -1.7546 2.7532 -2807.4 -3849.4)" gradientUnits="userSpaceOnUse">
   <stop stop-color="#c1c6e6" offset="0"/>
   <stop stop-color="#c2d4e5" offset="1"/>
  </linearGradient>
  <linearGradient id="i" x1="3429.8" x2="3701.8" y1="1622.7" y2="1638.7" gradientTransform="matrix(2.0799 .48185 -1.7546 2.7532 -2807.4 -3849.4)" gradientUnits="userSpaceOnUse">
   <stop stop-color="#c1c7e6" offset="0"/>
   <stop stop-color="#c1d5e6" offset="1"/>
  </linearGradient>
  <linearGradient id="h" x1="1827.7" x2="2063.7" y1="2570.7" y2="2354.4" gradientTransform="matrix(2.5636 0 0 2.5636 -2807.4 -3849.4)" gradientUnits="userSpaceOnUse">
   <stop stop-color="#bfd1e9" offset="0"/>
   <stop stop-color="#bec7e9" offset="1"/>
  </linearGradient>
  <linearGradient id="b" x1="3380.1" x2="3491" y1="1652.7" y2="1634.7" gradientTransform="matrix(2.0799 .48185 -1.7546 2.7532 -2807.4 -3849.4)" gradientUnits="userSpaceOnUse">
   <stop stop-color="#dae5f1" offset="0"/>
   <stop stop-color="#ccdaeb" offset="1"/>
  </linearGradient>
  <filter id="n" x="-.0097213" y="-.011793" width="1.0194" height="1.0236" color-interpolation-filters="sRGB">
   <feGaussianBlur stdDeviation="6.8704541"/>
  </filter>
  <linearGradient id="m" x1="4058.8" x2="5612.3" y1="4258.6" y2="2866" gradientUnits="userSpaceOnUse">
   <stop stop-opacity=".29395" offset="0"/>
   <stop stop-opacity=".14986" offset="1"/>
  </linearGradient>
 </defs>
 <g transform="matrix(3.0868e-5 0 0 3.0868e-5 .064999 -.010993)">
  <path transform="translate(1.4248e-5)" d="m-2105.7 356.12v4805.8h7999.1v-4805.8z" fill="#5a5a5a" stroke-opacity="0"/>
  <path transform="translate(1.4248e-5)" d="m5893.4 1426.1-7999.1 1527.6v2208.3h7999.1v-3735.9z" fill="#fff" stroke-opacity="0"/>
  <path transform="matrix(2.4975 .57854 -2.3073 1.1174 -1963.5 -2770.5)" d="m4618.3 3073.7 994-207.67c56.881-11.884 85.604 14.703 64.4 59.612l-482.87 1022.7c-21.204 44.909-84.066 90.63-140.95 102.51l-994 207.67c-56.881 11.884-85.604-14.703-64.4-59.612l482.87-1022.7c21.204-44.909 84.066-90.63 140.95-102.51z" fill="url(#m)" filter="url(#n)" opacity=".34649" style="mix-blend-mode:normal"/>
  <g transform="translate(0 135.74)">
   <path transform="translate(1.4248e-5)" d="m2267.5 1185.8c-143.13 1.0268-300.85 31.226-408.49 83.355l-3565.6 1726.7c-74.248 35.956-110.95 75.704-110.95 111.73v153.82c0 39.959 45.134 75.356 134.24 95.998l2961.6 686.07c169.48 39.26 431.96 9.8247 588.53-65.999l3565.6-1726.7c74.248-35.956 110.97-75.7 110.95-111.73l0.026-153.81c0-39.959-45.158-75.362-134.27-96.005l-2961.6-686.07c-52.962-12.269-115.01-17.829-180.07-17.362zm0 153.81c65.06-0.4691 127.11 5.0913 180.07 17.36l2961.6 686.07c29.488 6.831 54.125 15.288 73.936 24.983-14.324 9.816-31.191 19.508-50.666 28.94l-3565.6 1726.7c-156.59 75.835-419.08 105.27-588.55 66.011l-2961.6-686.07c-29.498-6.8335-54.143-15.291-73.958-24.988 14.324-9.8158 31.19-19.509 50.664-28.94l3565.6-1726.7c107.64-52.129 265.36-82.337 408.49-83.37z" fill="url(#a)" stroke-opacity="0"/>
   <path transform="translate(1.4248e-5)" d="m2447.6 1203.1 2961.6 686.07c169.48 39.26 179.87 131.91 23.295 207.73l-3565.6 1726.7c-156.57 75.824-419.06 105.26-588.54 66l-2961.6-686.07c-169.48-39.26-179.87-131.91-23.295-207.73l3565.6-1726.7c156.57-75.824 419.06-105.26 588.54-66z" fill="#fff" fill-rule="evenodd" stroke-opacity="0" style="mix-blend-mode:normal"/>
   <path transform="translate(1.4248e-5)" d="m2473.1 2255.9a0.76013 1.3235 43.476 0 0-0.1231 0.097c10.437 24.026 12.757 51.961 6.9271 83.823-6.7381 36.825-23.224 75.822-49.459 116.99l-180.92 283.89 190.14-116.9 21.688-15.369a44.481 77.447 43.476 0 0 46.764-61.622 312.36 543.85 43.476 0 0-11.219-250.87l-23.014-39.859a0.76013 1.3235 43.476 0 0-0.7855-0.1821z" fill="url(#c)" fill-rule="evenodd" opacity=".84"/>
   <path transform="translate(1.4248e-5)" d="m2288.5 2320.4c-9.7296 0.1153-20.046 2.2385-30.948 6.3738-16.019 5.8853-31.902 15.493-47.647 28.824-15.335 12.688-28.536 27.714-39.604 45.082l-178.93 280.77 188.41-115.86s23.643-13.006 41.166-17.303c17.366-4.2586 25.29-5.7396 25.432-5.7662l68.979-108.24c11.068-17.367 17.952-33.859 20.653-49.474 3.1112-16.258 1.7425-29.862-4.1051-40.813-4.9516-11.482-14.231-18.799-27.837-21.952-4.4035-1.02-8.9456-1.5681-13.625-1.6427h-1.9375z" fill="url(#f)" fill-rule="evenodd" opacity=".83991"/>
   <path transform="translate(1.4248e-5)" d="m2008.9 2156.7c7.1022 19.158 9.5514 40.927 7.3014 65.328v0.031l-0.026 0.1615c-0.9098 9.7632-2.5543 19.938-4.9597 30.539-6.2801 30.073-18.019 61.605-35.174 94.587l-0.067 0.1615-0.141 0.2358c-7.297 13.998-15.548 28.252-24.803 42.774l-156.8 246.04s128.22-73.534 165.75-102.08c37.522-28.547 50.416-34.307 64.627-60.052 27.188-49.254 34.79-109.69 31.327-165.85-2.82-45.736-34.08-121.94-47.039-151.87z" fill="url(#e)" fill-rule="evenodd" opacity=".84"/>
   <path transform="translate(1.4248e-5)" d="m1816.8 2213c-12.673-0.082-26.056 2.8133-40.149 8.6839-20.089 7.8954-39.685 20.704-58.785 38.425-19.101 17.721-36.234 38.482-51.401 62.281-15.577 24.443-26.317 47.422-32.222 68.938-5.9045 21.516-5.9865 39.584-0.2461 54.202 6.0467 13.736 17.585 22.667 34.59 26.817 0.031-0.026 4.7732-3.2773 7.3111-4.6516 17.233-9.334 34.938-18.13 53.541-24.298 12.746-4.2258 34.37-8.4908 48-10.974 2.3257-2.0381 4.6453-4.1336 6.9568-6.3093 19.51-18.364 37.054-39.767 52.632-64.21 15.167-23.8 25.498-46.136 30.993-67.009 5.4946-20.873 5.1664-38.296-0.9852-52.271-5.2553-14.505-16.388-23.728-33.396-27.668-5.4668-1.2667-11.08-1.9191-16.839-1.9558z" fill="url(#g)" fill-rule="evenodd"/>
   <path transform="translate(1.4248e-5)" d="m1730.9 2531.1c-17.871 15.791-36.662 29.524-56.371 41.199-19.299 11.031-39.182 18.605-59.651 22.722-5.5191 1.1679-11.077 1.9547-16.666 2.431v0.036s52.414-3.1053 78.337-7.0147c6.1437-0.9265 14.8-2.7277 22.715-4.4794l34.553-54.218z" fill="url(#d)" fill-rule="evenodd" opacity=".84"/>
   <path transform="translate(1.4248e-5)" d="m1550.3 2042.6a0.76013 1.3235 43.476 0 0-0.1222 0.098c10.437 24.026 12.757 51.961 6.927 83.823-6.738 36.825-23.224 75.822-49.459 116.99l-180.92 283.89 190.14-116.9 21.688-15.369a44.481 77.447 43.476 0 0 46.764-61.622 312.36 543.85 43.476 0 0-11.219-250.87l-23.014-39.859a0.76013 1.3235 43.476 0 0-0.7854-0.182z" fill="url(#b)" fill-rule="evenodd" opacity=".84"/>
   <path transform="translate(1.4248e-5)" d="m1365.4 2107.3c-9.7295 0.1142-20.046 2.2385-30.948 6.3737-16.019 5.8852-31.902 15.493-47.647 28.824-15.335 12.688-28.536 27.715-39.604 45.082l-178.93 280.77 188.41-115.86s23.643-13.006 41.166-17.303c17.366-4.2585 25.29-5.7394 25.432-5.7662l68.979-108.24c11.068-17.367 17.952-33.859 20.653-49.474 3.1111-16.258 1.7426-29.862-4.1051-40.813-4.9515-11.482-14.231-18.799-27.837-21.952-4.4036-1.0201-8.9457-1.5681-13.625-1.6427-0.6435-0.01-1.2888-0.011-1.9375 0z" fill="url(#l)" fill-rule="evenodd" opacity=".84"/>
   <path transform="translate(1.4248e-5)" d="m2763.2 2584c-10.378-0.042-20.969 0.2271-31.773 0.8082-45.666 2.2125-90.632 9.3319-134.9 21.357-43.35 11.872-81.632 28.018-114.85 48.439-32.783 20.155-53.598 40.341-62.443 60.559-8.359 20.328-4.8021 38.668 10.67 55.019 15.471 16.351 42.372 28.959 80.705 37.824 37.839 8.7661 79.605 12.023 125.27 9.8102 45.667-2.2129 90.39-9.3883 134.17-21.526 44.266-12.025 82.79-28.116 115.57-48.271 33.214-20.42 53.786-40.662 61.715-60.726 8.8449-20.216 5.5308-38.501-9.9408-54.852-14.555-16.504-40.998-29.188-79.331-38.052-14.372-3.3294-29.297-5.8512-44.762-7.5812-16.111-1.8013-32.815-2.7362-50.111-2.8068zm-35.259 59.625c8.7977-0.06 17.284 0.4133 25.454 1.4208 5.9423 0.7324 11.719 1.7483 17.33 3.0453 17.949 4.1583 29.597 10.13 34.934 17.932 5.3364 7.8037 5.1745 16.525-0.4884 26.164-5.6637 9.6389-16.475 19.364-32.435 29.176-16.392 10.078-34.696 18.252-54.915 24.525-20.219 6.2728-40.761 10.282-61.627 12.026-20.866 1.7443-40.276 0.5408-58.229-3.6116-17.949-4.1583-29.841-10.186-35.663-18.101-5.3365-7.8031-5.1733-16.523 0.4886-26.163 5.6635-9.6385 16.691-19.498 33.083-29.576 15.96-9.8125 34.049-17.855 54.268-24.127 20.219-6.2729 40.761-10.282 61.627-12.026 5.5042-0.4207 10.895-0.6493 16.174-0.6855z" fill="url(#k)" fill-rule="evenodd" stroke-opacity="0"/>
   <path transform="translate(1.4248e-5)" d="m1420.9 1973.6c-24.579-0.3309-49.648 3.6951-75.206 12.077-40.406 13.523-78.799 35.264-115.18 65.222-36.38 29.959-67.688 65.522-93.923 106.69l-181.39 284.63 112.98 26.174 178.93-280.77c11.068-17.367 24.269-32.394 39.604-45.082 15.745-13.331 31.628-22.938 47.647-28.824 16.916-6.416 32.419-7.9923 46.511-4.7277 13.606 3.1521 22.885 10.47 27.837 21.952 5.8477 10.951 7.2162 24.555 4.1051 40.813-2.7013 15.614-9.5852 32.106-20.653 49.474l-178.93 280.77 112.98 26.174 181.39-284.63c26.235-41.167 42.721-80.164 49.459-116.99 6.7379-36.826 2.6121-68.416-12.378-94.773-14.504-26.244-41.195-43.87-80.069-52.877-14.396-3.335-28.966-5.1023-43.714-5.3007z" fill="url(#j)" fill-rule="evenodd"/>
   <path transform="translate(1.4248e-5)" d="m1871.4 2078.7c-26.768 0.027-54.332 5.0606-82.689 15.101-44.885 16.177-88.294 42.292-130.23 78.345-41.527 35.41-78.279 78.2-110.25 128.37-30.744 48.242-51.367 93.293-61.87 135.15-10.094 41.215-9.681 76.007 1.2402 104.37 10.921 28.367 32.904 46.379 65.947 54.034 20.895 4.8407 41.334 5.1462 61.317 0.9173 20.469-4.1162 40.352-11.69 59.651-22.722 19.709-11.674 38.5-25.407 56.371-41.199l2.9163 0.6756-50.421 79.117 110.79 25.668 156.8-246.04c31.154-48.886 51.216-94.804 60.186-137.76 9.8655-43.483 7.1505-79.915-8.144-109.3-14.399-29.911-42.494-49.706-84.284-59.388-15.489-3.5883-31.263-5.3749-47.324-5.3585zm-54.597 134.29c5.76 0.037 11.373 0.6892 16.839 1.9557 17.008 3.9401 28.14 13.162 33.396 27.668 6.1517 13.974 6.4801 31.397 0.9855 52.27-5.4947 20.873-15.826 43.209-30.993 67.009-15.577 24.443-33.121 45.846-52.632 64.21-19.511 18.364-39.517 31.816-60.016 40.354-19.603 8.0084-37.908 10.042-54.915 6.1023-17.494-4.0527-29.316-13.066-35.468-27.04-5.7416-14.618-5.6596-32.685 0.245-54.202s16.645-44.495 32.222-68.938c15.167-23.8 32.3-44.56 51.401-62.281 19.101-17.721 38.696-30.53 58.785-38.425 14.093-5.8704 27.476-8.7649 40.149-8.6838z" fill="url(#i)" fill-rule="evenodd"/>
   <path transform="translate(1.4248e-5)" d="m2343.8 2186.4c-24.58-0.331-49.648 3.6949-75.206 12.077-40.406 13.523-78.799 35.264-115.18 65.222-36.38 29.959-67.688 65.522-93.923 106.69l-181.39 284.63 112.98 26.174 178.93-280.77c11.068-17.368 24.269-32.394 39.604-45.082 15.745-13.331 31.628-22.938 47.647-28.824 16.916-6.4159 32.419-7.9923 46.511-4.7278 13.606 3.1522 22.886 10.47 27.837 21.952 5.8476 10.951 7.2163 24.555 4.1051 40.813-2.7012 15.615-9.5852 32.106-20.653 49.474l-178.93 280.77 112.98 26.174 181.39-284.63c26.235-41.167 42.721-80.164 49.459-116.99 6.7379-36.825 2.6121-68.416-12.378-94.773-14.504-26.244-41.195-43.87-80.069-52.876-14.396-3.3352-28.966-5.1023-43.714-5.3007z" fill="url(#h)" fill-rule="evenodd"/>
  </g>
 </g>
 <metadata>
  <rdf:RDF>
   <cc:Work rdf:about="">
    <dc:creator>
     <cc:Agent>
      <dc:title>Yousuf Ahmed Antu</dc:title>
     </cc:Agent>
    </dc:creator>
    <dc:publisher>
     <cc:Agent>
      <dc:title>https://github.com/YousufAntu/icons/</dc:title>
     </cc:Agent>
    </dc:publisher>
    <dc:language>English</dc:language>
    <dc:contributor>
     <cc:Agent>
      <dc:title>Yousuf Ahmed Antu</dc:title>
     </cc:Agent>
    </dc:contributor>
    <cc:license rdf:resource="https://www.apache.org/licenses/LICENSE-2.0"/>
    <dc:title>nano</dc:title>
   </cc:Work>
  </rdf:RDF>
 </metadata>
</svg>
